# xmcd
#
# Track frame offsets:
#	150
#	11751
#	25035
#	37110
#	48895
#	60523
#	71998
#	83862
#	95340
#	107644
#
# Disc length: 1596
#
# Revision: 1
# Processed by: cddbd v1.5.1PL0 Copyright (c) Steve Scherf et al.
# Submitted via: FreeRIP 2.00 
# Normalized: r0:TRMNUM
#
DISCID=7c063a0a
DTITLE=Bob Wills - Bob Wills Special
DYEAR=1900
DGENRE=Country
TTITLE0=San Antonio Rose
TTITLE1=Trouble In Mind
TTITLE2=Take Me Back To Tulsa
TTITLE3=Big Beaver
TTITLE4=Roly Poly
TTITLE5=I Can`t Go On This Way
TTITLE6=Time Changes Everything
TTITLE7=Miss Molly
TTITLE8=The Convict and the Rose
TTITLE9=New San Antonio Rose
EXTD=
EXTT0=
EXTT1=
EXTT2=
EXTT3=
EXTT4=
EXTT5=
EXTT6=
EXTT7=
EXTT8=
EXTT9=
PLAYORDER=
